<svg xmlns="http://www.w3.org/2000/svg" width="59.891" height="64.435" viewBox="0 0 59.891 64.435"><path d="M62.719,50.266a28.191,28.191,0,0,1-4.15.324A29.282,29.282,0,0,1,33.9,5.485a1.542,1.542,0,0,0-1.512-2.36,32.377,32.377,0,0,0,1.45,64.28,29.786,29.786,0,0,0,3.1.139A32.308,32.308,0,0,0,64.231,52.611a1.549,1.549,0,0,0,0-1.666A1.508,1.508,0,0,0,62.719,50.266ZM34.135,64.335A29.291,29.291,0,0,1,29.6,6.827a32.36,32.36,0,0,0,28.97,46.849c.37,0,.74,0,1.111-.031A29.262,29.262,0,0,1,34.135,64.335Z" transform="translate(-4.583 -3.111)" fill="#4285bc"/></svg>