<svg xmlns="http://www.w3.org/2000/svg" width="41.002" height="35.978" viewBox="0 0 41.002 35.978"><g transform="translate(0.001 0)"><path d="M16.06,9.58c6.81-4.86,16.66-3.53,18.73,5.48C37.23,25.4,24.33,35.37,16.06,26.37c5,.12,10.1,0,11.8-5.11C30.9,12.74,22.75,9.1,16.06,9.58Z" fill="#fff" opacity="0.5"/><path d="M31.39,4.47C19.83-5.38.12,1.92,0,17.85c-.12,16.67,19.46,23.6,31.39,13.26C4.75,37.68-1.22.46,31.39,4.47Z" fill="#fff"/><path d="M36.86,22.23H19.34A4.29,4.29,0,0,1,15.09,18h0a4.3,4.3,0,0,1,4.25-4.26h17.4A4.32,4.32,0,0,1,41,18h0a4.13,4.13,0,0,1-4.14,4.23Z" fill="#fff"/></g></svg>