<svg xmlns="http://www.w3.org/2000/svg" width="163.192" height="143.208" viewBox="0 0 163.192 143.208">
  <g id="siteIcon" transform="translate(0 -0.023)">
    <path id="Path_1" data-name="Path 1" d="M13.2,16.679C40.314-2.688,79.532,2.638,87.763,38.467,97.447,79.622,46.124,119.325,13.2,83.5c19.851.484,40.187,0,46.965-20.335C72.27,29.268,39.83,14.742,13.2,16.679Z" transform="translate(50.713 21.481)" fill="#d1e3ee"/>
    <path id="Path_2" data-name="Path 2" d="M124.919,17.825C78.923-21.394.486,7.657,0,71.084c-.484,66.332,77.468,93.93,124.918,52.775C18.885,150-4.84,1.847,124.919,17.825Z" transform="translate(0 0)" fill="#4684b9"/>
    <path id="Path_3" data-name="Path 3" d="M99.068,45.192H29.346A17.155,17.155,0,0,1,12.4,28.246h0A17.155,17.155,0,0,1,29.346,11.3H98.584A17.155,17.155,0,0,1,115.53,28.246h0C116.014,37.446,108.267,45.192,99.068,45.192Z" transform="translate(47.64 43.322)" fill="#a0cc4d"/>
  </g>
</svg>
